<?xml version="1.0" encoding="UTF-8"?>
<svg id="_图层_2" data-name="图层_2" xmlns="http://www.w3.org/2000/svg" version="1.1" xmlns:xlink="http://www.w3.org/1999/xlink" viewBox="0 0 215.43 240.94">
  <!-- Generator: Adobe Illustrator 29.5.0, SVG Export Plug-In . SVG Version: 2.1.0 Build 137)  -->
  <defs>
    <style>
      .st0 {
        fill: #6fba8d;
        stroke: #7fc096;
        stroke-miterlimit: 10;
      }

      .st1 {
        fill: #fbe8cd;
        stroke: #e6a966;
      }

      .st1, .st2 {
        stroke-linejoin: round;
      }

      .st3 {
        fill: #fff;
      }

      .st2 {
        fill: #dc6d9e;
        stroke: #d06896;
        stroke-width: .5px;
      }

      .st4 {
        stroke-dasharray: 1.62 1.22;
        stroke-width: .4px;
      }

      .st4, .st5 {
        fill: none;
        stroke: #152e44;
        stroke-miterlimit: 8;
      }

      .st6, .st7, .st8 {
        isolation: isolate;
      }

      .st7 {
        fill: #d83b8f;
        font-family: Arial-BoldMT, Arial;
        font-size: 12px;
        font-weight: 700;
      }

      .st8 {
        fill: #231815;
        font-family: ArialMT, Arial;
        font-size: 10px;
      }

      .st5 {
        stroke-width: .2px;
      }
    </style>
  </defs>
  <polygon class="st4" points="62.41 40.19 79.77 20.73 109.87 20.73 92.5 40.19 62.41 40.19"/>
  <polygon class="st4" points="157.33 40.19 140.59 20.73 109.36 20.73 126.09 40.19 157.33 40.19"/>
  <polygon class="st1" points="175.88 20.86 40.42 20.86 40.42 14.49 175.88 14.49 175.88 11.31 186.61 17.68 175.88 24.05 175.88 20.86"/>
  <polygon class="st1" points="175.88 48.98 40.42 48.98 40.42 42.61 175.88 42.61 175.88 39.43 186.61 45.8 175.88 52.17 175.88 48.98"/>
  <rect class="st2" x="93.54" y="39.68" width="32.15" height="12.74"/>
  <rect class="st5" x="93.54" y="39.68" width="32.15" height="12.74"/>
  <rect class="st0" x="61.39" y="39.68" width="32.15" height="12.74"/>
  <rect class="st5" x="61.39" y="39.68" width="32.15" height="12.74"/>
  <rect class="st0" x="125.69" y="39.68" width="32.15" height="12.74"/>
  <rect class="st5" x="125.69" y="39.68" width="32.15" height="12.74"/>
  <polygon class="st4" points="108.56 99.18 88.57 78.11 59.38 78.11 79.37 99.18 108.56 99.18"/>
  <polygon class="st4" points="110.1 99.18 127.91 78.11 159.28 78.11 141.47 99.18 110.1 99.18"/>
  <polygon class="st1" points="176.36 78.24 39.9 78.24 39.9 71.85 176.36 71.85 176.36 68.65 187.13 75.05 176.36 81.44 176.36 78.24"/>
  <polygon class="st1" points="176.36 107.5 39.9 107.5 39.9 101.1 176.36 101.1 176.36 97.9 187.13 104.3 176.36 110.69 176.36 107.5"/>
  <rect class="st2" x="93.19" y="69.42" width="32.28" height="12.79"/>
  <rect class="st5" x="93.19" y="69.42" width="32.28" height="12.79"/>
  <rect class="st0" x="77.31" y="98.16" width="32.28" height="12.79"/>
  <rect class="st5" x="77.31" y="98.16" width="32.28" height="12.79"/>
  <rect class="st0" x="109.58" y="98.16" width="32.28" height="12.79"/>
  <rect class="st5" x="109.58" y="98.16" width="32.28" height="12.79"/>
  <polygon class="st4" points="140.75 161.57 98.92 142.1 70.09 142.1 111.92 161.57 140.75 161.57"/>
  <rect class="st4" x="69.06" y="142.1" width="32.26" height="18.45"/>
  <polygon class="st1" points="175.75 138.64 39.86 138.64 39.86 132.25 175.75 132.25 175.75 129.06 186.51 135.45 175.75 141.84 175.75 138.64"/>
  <polygon class="st1" points="175.75 169.88 39.86 169.88 39.86 163.49 175.75 163.49 175.75 160.29 186.51 166.68 175.75 173.08 175.75 169.88"/>
  <rect class="st2" x="109.01" y="160.55" width="32.26" height="12.78"/>
  <rect class="st5" x="109.01" y="160.55" width="32.26" height="12.78"/>
  <rect class="st0" x="69.06" y="129.83" width="32.26" height="12.78"/>
  <rect class="st5" x="69.06" y="129.83" width="32.26" height="12.78"/>
  <rect class="st0" x="69.06" y="160.55" width="32.26" height="12.78"/>
  <rect class="st5" x="69.06" y="160.55" width="32.26" height="12.78"/>
  <rect class="st4" x="139.36" y="196.84" width="22.77" height="20.8"/>
  <rect class="st4" x="61.22" y="196.84" width="22.77" height="20.8"/>
  <polygon class="st4" points="88.78 196.33 134.71 196.33 88.65 217.65 134.07 217.65 88.78 196.33"/>
  <polygon class="st1" points="176.25 196.97 39.06 196.97 39.06 190.51 176.25 190.51 176.25 187.28 187.13 193.74 176.25 200.2 176.25 196.97"/>
  <polygon class="st1" points="176.25 226.56 39.06 226.56 39.06 220.1 176.25 220.1 176.25 216.87 187.13 223.33 176.25 229.79 176.25 226.56"/>
  <rect class="st2" x="88.13" y="217.13" width="46.58" height="12.92"/>
  <rect class="st5" x="88.13" y="217.13" width="46.58" height="12.92"/>
  <rect class="st0" x="60.18" y="217.13" width="23.81" height="12.92"/>
  <rect class="st5" x="60.18" y="217.13" width="23.81" height="12.92"/>
  <rect class="st0" x="138.85" y="217.13" width="23.81" height="12.92"/>
  <rect class="st5" x="138.85" y="217.13" width="23.81" height="12.92"/>
  <polygon class="st3" points="72.93 224.9 64.58 224.9 64.58 222.28 72.93 222.28 72.93 220.49 79.59 223.59 72.93 226.69 72.93 224.9"/>
  <polygon class="st3" points="151.07 224.9 142.73 224.9 142.73 222.28 151.07 222.28 151.07 220.49 157.74 223.59 151.07 226.69 151.07 224.9"/>
  <polygon class="st3" points="99.19 224.9 130.83 224.9 130.83 222.28 99.19 222.28 99.19 220.49 92.53 223.59 99.19 226.69 99.19 224.9"/>
  <a xlink:href="/Pancan-meQTL/cis">
    <g class="st6">
      <g class="st6">
        <text class="st7" transform="translate(30.45 56.07) rotate(-90)"><tspan x="0" y="0">Insertion</tspan></text>
        <g class="st6">
          <text class="st7" transform="translate(192.76 63.61) rotate(90)"><tspan x="0" y="0">Deletion</tspan></text>
        </g>
        <g class="st6">
          <text class="st7" transform="translate(30.45 180.28) rotate(-90)"><tspan x="0" y="0">Duplication</tspan></text>
        </g>
        <g class="st6">
          <text class="st7" transform="translate(192.76 183.96) rotate(90)"><tspan x="0" y="0">Inversion</tspan></text>
        </g>
      </g>
    </g>
  </a>
  <g class="st6">
    <text class="st8" transform="translate(122.33 64.53)"><tspan x="0" y="0">Nbp (N &gt;= 50)</tspan></text>
  </g>
  <line class="st4" x1="114.7" y1="53.04" x2="123.07" y2="60.57"/>
  <line class="st4" x1="115.12" y1="69.45" x2="122.89" y2="62.2"/>
</svg>