<?xml version="1.0" encoding="utf-8"?>
<!-- Generator: Adobe Illustrator 16.0.0, SVG Export Plug-In . SVG Version: 6.00 Build 0)  -->
<!DOCTYPE svg PUBLIC "-//W3C//DTD SVG 1.1//EN" "http://www.w3.org/Graphics/SVG/1.1/DTD/svg11.dtd">
<svg version="1.1" id="图层_1" xmlns="http://www.w3.org/2000/svg" xmlns:xlink="http://www.w3.org/1999/xlink" x="0px" y="0px"
	 width="226.77px" height="226.77px" viewBox="0 0 226.77 226.77" enable-background="new 0 0 226.77 226.77" xml:space="preserve">
<rect x="99.003" y="93.227" fill="#5B9BD5" width="54.653" height="11.432"/>
<rect x="99.003" y="93.227" fill="#7BE05A" width="54.653" height="11.432"/>
<rect x="99.003" y="93.227" fill="none" stroke="#41719C" stroke-width="2" stroke-miterlimit="8" width="54.653" height="11.432"/>
<rect x="99.003" y="144.156" fill="#5B9BD5" width="54.653" height="11.434"/>
<rect x="99.003" y="144.156" fill="#7BE05A" width="54.653" height="11.434"/>
<rect x="99.003" y="144.156" fill="none" stroke="#41719C" stroke-width="2" stroke-miterlimit="8" width="54.653" height="11.434"/>
<line fill="none" stroke="#5B9BD5" stroke-width="2" stroke-miterlimit="8" x1="99.003" y1="81.797" x2="99.003" y2="99.055"/>
<polygon fill="#5B9BD5" points="115.589,79.779 119.623,81.797 115.589,83.814 115.589,82.133 99.003,82.133 99.003,81.461 
	115.589,81.461 "/>
<line fill="none" stroke="#5B9BD5" stroke-width="2" stroke-miterlimit="8" x1="99.003" y1="133.398" x2="99.003" y2="150.656"/>
<polygon fill="#5B9BD5" points="115.589,131.383 119.623,133.398 115.589,135.418 115.589,133.734 99.003,133.734 99.003,133.063 
	115.589,133.063 "/>
<line fill="none" stroke="#1D2CFF" stroke-width="2" stroke-miterlimit="8" x1="33.444" y1="98.941" x2="212.492" y2="98.941"/>
<line fill="none" stroke="#1100EB" stroke-width="2" stroke-miterlimit="8" x1="33.444" y1="149.873" x2="212.492" y2="149.873"/>
<text transform="matrix(1 0 0 1 22.6865 101.6328)" fill="#D70023" font-family="'ArialMT'" font-size="12.1032">A</text>
<text transform="matrix(1 0 0 1 22.6865 154.916)" fill="#FF04E4" font-family="'ArialMT'" font-size="12.1032">G</text>
<line fill="none" stroke="#2600F5" stroke-width="2" stroke-miterlimit="8" x1="8.096" y1="149.873" x2="22.484" y2="149.873"/>
<line fill="none" stroke="#0400FF" stroke-width="2" stroke-miterlimit="8" x1="7.289" y1="98.941" x2="21.678" y2="98.941"/>
<g>
	<path fill="none" stroke="#DF70EF" stroke-width="2" stroke-miterlimit="8" d="M169.473,129.887
		c10.207,11.375,10.656,11.66,17.711,0.996c7.059-10.666,14.264,2.699,14.563,3.129"/>
	<path fill="none" stroke="#DF70EF" stroke-width="2" stroke-miterlimit="8" d="M169.258,136.379
		c10.207,11.375,10.656,11.66,17.713,0.992c7.057-10.664,14.799,1.09,15.1,1.516"/>
	<path fill="none" stroke="#EF73A6" stroke-width="2" stroke-miterlimit="8" d="M168.723,68.894
		c10.289,11.298,10.742,11.581,17.854,0.988s14.916,1.081,15.219,1.505"/>
	<path fill="none" stroke="#EF73A6" stroke-width="2" stroke-miterlimit="8" d="M168.723,74.971
		c10.289,11.299,10.742,11.58,17.854,0.988c7.111-10.594,14.916,1.08,15.219,1.504"/>
	<path fill="none" stroke="#EF73A6" stroke-width="2" stroke-miterlimit="8" d="M168.723,81.047
		c10.289,11.297,10.742,11.58,17.854,0.988c7.111-10.594,14.916,1.08,15.219,1.504"/>
	<path fill="none" stroke="#EF73A6" stroke-width="2" stroke-miterlimit="8" d="M168.723,85.822
		c10.289,11.299,10.742,11.58,17.854,0.988s14.916,1.08,15.219,1.506"/>
	<path fill="none" stroke="#E57C9F" stroke-width="2" stroke-miterlimit="8" d="M30.418,89.785c0,0,34.059-63.859,64.001-22.679"/>
	<polygon fill="#EA5785" points="99.003,74.32 88.307,66.918 93.99,66.626 96.551,61.546 	"/>
</g>
<rect x="2.25" y="1" fill="none" stroke="#F2E088" stroke-width="2" stroke-miterlimit="8" width="222.5" height="223.5"/>
</svg>
