<?xml version="1.0" encoding="UTF-8"?>
<svg id="_图层_1" data-name="图层_1" xmlns="http://www.w3.org/2000/svg" version="1.1" viewBox="0 0 215.43 240.94">
  <!-- Generator: Adobe Illustrator 29.5.0, SVG Export Plug-In . SVG Version: 2.1.0 Build 137)  -->
  <defs>
    <style>
      .st0 {
        fill: #231815;
        font-family: ArialMT, Arial;
      }

      .st0, .st1 {
        font-size: 14px;
      }

      .st1 {
        fill: #d83b8f;
        font-family: Arial-BoldMT, Arial;
        font-weight: 700;
      }

      .st2 {
        fill: #eb70a7;
        stroke: #dc6c9e;
      }

      .st2, .st3 {
        stroke-width: .5px;
      }

      .st2, .st3, .st4, .st5, .st6 {
        stroke-linejoin: round;
      }

      .st7 {
        stroke-miterlimit: 8;
        stroke-width: .78px;
      }

      .st7, .st3, .st8 {
        fill: #4dc1e8;
      }

      .st7, .st8 {
        stroke: #4dc1e8;
      }

      .st3 {
        stroke: #4fb7da;
      }

      .st4 {
        fill: none;
        stroke: #e4007f;
        stroke-width: .75px;
      }

      .st5 {
        fill: #f6b269;
        stroke: #e3ddcf;
        stroke-width: 7px;
      }

      .st8 {
        fill-rule: evenodd;
      }

      .st8, .st9 {
        stroke-miterlimit: 10;
      }

      .st9 {
        fill: #70c192;
        stroke: #83c79a;
      }

      .st6 {
        fill: #fdeacf;
        stroke: #eead67;
      }
    </style>
  </defs>
  <path class="st5" d="M201.68,36.74"/>
  <g>
    <polygon class="st8" points="121.63 97 124.12 97 124.12 73.99 129.09 73.99 129.09 97 131.58 97 126.6 101.97 121.63 97 121.63 97"/>
    <polygon class="st7" points="121.63 97 124.12 97 124.12 73.99 129.09 73.99 129.09 97 131.58 97 126.6 101.97 121.63 97 121.63 97"/>
  </g>
  <rect class="st6" x="26.26" y="49.74" width="173.39" height="12.12"/>
  <rect class="st6" x="26.26" y="33.26" width="173.39" height="12.12"/>
  <path class="st5" d="M205.09,40.44"/>
  <path class="st5" d="M27.92,40.44"/>
  <path class="st5" d="M205.09,54.77"/>
  <path class="st5" d="M27.92,54.77"/>
  <circle class="st9" cx="68.85" cy="39.5" r="5.76"/>
  <circle class="st9" cx="68.89" cy="56.27" r="5.8"/>
  <rect class="st4" x="118.76" y="30" width="18.38" height="35.31"/>
  <path class="st5" d="M203.9,29.68"/>
  <rect class="st6" x="26.26" y="131.25" width="173.31" height="12"/>
  <rect class="st6" x="26.26" y="114.94" width="173.31" height="12"/>
  <rect class="st2" x="112.68" y="115.11" width="17.18" height="10.96"/>
  <text class="st0" transform="translate(116.25 126.07)"><tspan x="0" y="0">C</tspan></text>
  <rect class="st2" x="113.14" y="131.77" width="17.18" height="10.96"/>
  <text class="st0" transform="translate(116.71 142.73)"><tspan x="0" y="0">G</tspan></text>
  <rect class="st4" x="112.68" y="113.12" width="17.64" height="29.69"/>
  <text class="st1" transform="translate(20.64 184.12) rotate(-90)"><tspan x="0" y="0">Haplotype</tspan></text>
  <rect class="st6" x="26.26" y="169.32" width="173.31" height="12"/>
  <rect class="st6" x="26.26" y="153.01" width="173.31" height="12"/>
  <rect class="st3" x="131.78" y="153.18" width="17.18" height="10.96"/>
  <text class="st0" transform="translate(135.43 164.14)"><tspan x="0" y="0">T</tspan></text>
  <rect class="st3" x="131.24" y="169.84" width="17.18" height="10.96"/>
  <text class="st0" transform="translate(135.9 180.8)"><tspan x="0" y="0">A</tspan></text>
  <rect class="st4" x="130.86" y="151.19" width="18.1" height="29.69"/>
</svg>